<svg width="6" height="10" viewBox="0 0 6 10" fill="none" xmlns="http://www.w3.org/2000/svg">
<path d="M5.39481 4.49725L1.38564 0.495168C1.31979 0.428777 1.24145 0.376082 1.15513 0.34012C1.06881 0.304159 0.976231 0.285645 0.882723 0.285645C0.789214 0.285645 0.696631 0.304159 0.610314 0.34012C0.523997 0.376082 0.445655 0.428777 0.379806 0.495168C0.247878 0.627883 0.173828 0.807412 0.173828 0.994543C0.173828 1.18167 0.247878 1.3612 0.379806 1.49392L3.88606 5.03558L0.379806 8.54183C0.247878 8.67455 0.173828 8.85408 0.173828 9.04121C0.173828 9.22834 0.247878 9.40787 0.379806 9.54058C0.445408 9.60751 0.52364 9.66076 0.609968 9.69724C0.696297 9.73371 0.789005 9.7527 0.882723 9.75308C0.97644 9.7527 1.06915 9.73371 1.15548 9.69724C1.24181 9.66076 1.32004 9.60751 1.38564 9.54058L5.39481 5.5385C5.46671 5.47217 5.52409 5.39167 5.56333 5.30206C5.60258 5.21246 5.62284 5.1157 5.62284 5.01788C5.62284 4.92005 5.60258 4.82329 5.56333 4.73369C5.52409 4.64408 5.46671 4.56358 5.39481 4.49725Z" fill="#0A0A0A"/>
</svg>
